<?xml version="1.0" encoding="UTF-8" standalone="no"?>
<!-- Uploaded to: SVG Repo, www.svgrepo.com, Generator: SVG Repo Mixer Tools -->

<svg
   fill="#000000"
   version="1.1"
   id="Capa_1"
   width="224"
   height="128"
   viewBox="0 0 154.38948 88.22256"
   xml:space="preserve"
   sodipodi:docname="connected.svg"
   inkscape:version="1.3 (0e150ed, 2023-07-21)"
   inkscape:export-filename="connected.png"
   inkscape:export-xdpi="96"
   inkscape:export-ydpi="96"
   xmlns:inkscape="http://www.inkscape.org/namespaces/inkscape"
   xmlns:sodipodi="http://sodipodi.sourceforge.net/DTD/sodipodi-0.dtd"
   xmlns:xlink="http://www.w3.org/1999/xlink"
   xmlns="http://www.w3.org/2000/svg"
   xmlns:svg="http://www.w3.org/2000/svg"><defs
   id="defs1"><linearGradient
     id="linearGradient7"
     inkscape:collect="always"><stop
       style="stop-color:#00488f;stop-opacity:1;"
       offset="0"
       id="stop7" /><stop
       style="stop-color:#4fa4ff;stop-opacity:1;"
       offset="1"
       id="stop8" /></linearGradient><linearGradient
     inkscape:collect="always"
     xlink:href="#linearGradient7"
     id="linearGradient8"
     x1="68.969574"
     y1="79.475365"
     x2="24.665854"
     y2="1.8908941"
     gradientUnits="userSpaceOnUse"
     gradientTransform="matrix(0.96592806,0,0,0.96592806,1.5029567,1.5029567)" /><linearGradient
     inkscape:collect="always"
     xlink:href="#linearGradient7"
     id="linearGradient3"
     gradientUnits="userSpaceOnUse"
     gradientTransform="matrix(0.48296403,0,0,0.48296403,88.974037,0.75147772)"
     x1="68.969574"
     y1="79.475365"
     x2="24.665854"
     y2="1.8908941" /><linearGradient
     inkscape:collect="always"
     xlink:href="#linearGradient7"
     id="linearGradient11"
     gradientUnits="userSpaceOnUse"
     gradientTransform="matrix(0.24148201,0,0,0.24148201,132.70958,0.375738)"
     x1="68.969574"
     y1="79.475365"
     x2="24.665854"
     y2="1.8908941" /></defs><sodipodi:namedview
   id="namedview1"
   pagecolor="#505050"
   bordercolor="#ffffff"
   borderopacity="1"
   inkscape:showpageshadow="0"
   inkscape:pageopacity="0"
   inkscape:pagecheckerboard="1"
   inkscape:deskcolor="#505050"
   showgrid="false"
   inkscape:zoom="3.56"
   inkscape:cx="142.69663"
   inkscape:cy="43.539326"
   inkscape:window-width="1072"
   inkscape:window-height="879"
   inkscape:window-x="0"
   inkscape:window-y="38"
   inkscape:window-maximized="0"
   inkscape:current-layer="Capa_1"><inkscape:grid
     id="grid1"
     units="px"
     originx="0"
     originy="0"
     spacingx="5.51391"
     spacingy="5.51391"
     empcolor="#0099e5"
     empopacity="0.30196078"
     color="#0099e5"
     opacity="0.14901961"
     empspacing="4"
     dotted="false"
     gridanglex="30"
     gridanglez="30"
     visible="false" /></sodipodi:namedview>&#10;&#10;<path
   id="rect1"
   style="fill:url(#linearGradient8);stroke:#000000;stroke-width:0.998633;stroke-dasharray:none;stroke-opacity:1"
   d="M 44.112421,1.5549675 28.186315,17.481077 H 38.838396 V 38.785239 H 17.534234 V 28.133158 L 1.556113,44.111279 17.534234,60.0894 V 49.437319 H 38.838396 V 70.741481 H 28.186315 L 44.112421,86.66759 60.142557,70.741481 H 49.490476 V 49.437319 H 70.794638 V 60.0894 l 15.8741,-15.978121 -15.8741,-15.978121 V 38.785239 H 49.490476 V 17.481077 h 10.652081 z" /><path
   style="color:#000000;fill:#eaa211;fill-opacity:1;stroke:#000000;stroke-width:1.03386;stroke-linecap:round;stroke-dasharray:none;stroke-opacity:1"
   d="m 74.403096,44.238102 c 7.270687,-4.197733 9.78128,-13.567395 5.583548,-20.83808 -4.197733,-7.270687 -13.569715,-9.785299 -20.840402,-5.587566 l -14.078678,8.128329 a 3.2744381,3.2744381 0 0 0 -1.198899,4.474358 3.2744381,3.2744381 0 0 0 4.474356,1.1989 l 14.078678,-8.128329 c 4.226777,-2.440331 9.451355,-1.037012 11.891687,3.189766 2.44033,4.226775 1.041031,9.449034 -3.185746,11.889366 l -17.200576,9.930757 c -4.226778,2.440332 -9.449038,1.041031 -11.889368,-3.185744 -0.403623,-0.699095 -0.702678,-1.422594 -0.896381,-2.155711 a 3.2744381,3.2744381 0 0 0 -4.001757,-2.328905 3.2744381,3.2744381 0 0 0 -2.328907,4.001758 c 0.340399,1.288227 0.859493,2.555759 1.553789,3.758314 4.197732,7.270685 13.567393,9.781278 20.83808,5.583544 z"
   id="rect11" /><path
   style="color:#000000;fill:#fd34e5;fill-opacity:1;stroke:#000000;stroke-width:1.03386;stroke-linecap:round;stroke-dasharray:none;stroke-opacity:1"
   d="m 43.155985,62.27863 a 3.2744322,3.2744322 0 0 0 1.194883,-4.472036 3.2744322,3.2744322 0 0 0 -4.470339,-1.20122 l -14.078678,8.128329 c -4.226779,2.440332 -9.453054,1.043352 -11.893385,-3.183425 -2.440333,-4.22678 -1.039335,-9.455374 3.187444,-11.895707 l 17.196559,-9.928438 c 4.226779,-2.440332 9.455374,-1.039335 11.895706,3.187445 0.40361,0.699072 0.696303,1.420862 0.890043,2.154011 a 3.2744322,3.2744322 0 0 0 4.001756,2.328904 3.2744322,3.2744322 0 0 0 2.328907,-4.001758 C 53.068483,42.106561 52.55172,40.843015 51.857414,39.640442 47.659682,32.369757 38.287694,29.855144 31.017012,34.052875 L 13.820453,43.981313 C 6.5497682,48.179045 4.0374774,57.555049 8.2352094,64.825734 12.43294,72.096417 21.806624,74.604693 29.077307,70.406959 Z"
   id="path19" /><path
   id="path1"
   style="fill:url(#linearGradient3);stroke:#000000;stroke-width:0.499317;stroke-dasharray:none;stroke-opacity:1"
   d="m 110.27877,0.77748312 -7.96305,7.96305478 h 5.32604 V 19.392619 H 96.989676 v -5.326041 l -7.98906,7.989061 7.98906,7.98906 v -5.32604 H 107.64176 V 35.37074 h -5.32604 l 7.96305,7.963054 8.01507,-7.963054 H 112.9678 V 24.718659 h 10.65208 v 5.32604 l 7.93705,-7.98906 -7.93705,-7.989061 v 5.326041 H 112.9678 V 8.7405379 h 5.32604 z" /><path
   style="color:#000000;fill:#eaa211;fill-opacity:1;stroke:#000000;stroke-width:0.51693;stroke-linecap:round;stroke-dasharray:none;stroke-opacity:1"
   d="m 125.42411,22.11905 c 3.63534,-2.098866 4.89064,-6.783697 2.79177,-10.41904 -2.09887,-3.6353431 -6.78486,-4.8926491 -10.4202,-2.7937826 l -7.03934,4.0641646 a 1.637219,1.637219 0 0 0 -0.59945,2.237179 1.637219,1.637219 0 0 0 2.23718,0.59945 l 7.03934,-4.064165 c 2.11339,-1.220165 4.72568,-0.518506 5.94584,1.594883 1.22017,2.113388 0.52052,4.724517 -1.59287,5.944683 l -8.60029,4.965379 c -2.11339,1.220166 -4.72452,0.520515 -5.94468,-1.592872 -0.20181,-0.349548 -0.35134,-0.711297 -0.44819,-1.077856 a 1.637219,1.637219 0 0 0 -2.00088,-1.164452 1.637219,1.637219 0 0 0 -1.16446,2.000879 c 0.1702,0.644113 0.42975,1.277879 0.7769,1.879157 2.09887,3.635342 6.7837,4.890639 10.41904,2.791772 z"
   id="path2" /><path
   style="color:#000000;fill:#fd34e5;fill-opacity:1;stroke:#000000;stroke-width:0.51693;stroke-linecap:round;stroke-dasharray:none;stroke-opacity:1"
   d="m 109.80055,31.139314 a 1.6372161,1.6372161 0 0 0 0.59744,-2.236018 1.6372161,1.6372161 0 0 0 -2.23517,-0.60061 l -7.03934,4.064165 c -2.113385,1.220166 -4.726523,0.521676 -5.946688,-1.591713 -1.220167,-2.11339 -0.519667,-4.727687 1.593722,-5.947853 l 8.598276,-4.964219 c 2.11339,-1.220166 4.72769,-0.519668 5.94786,1.593722 0.2018,0.349536 0.34815,0.710431 0.44502,1.077006 a 1.6372161,1.6372161 0 0 0 2.00088,1.164452 1.6372161,1.6372161 0 0 0 1.16445,-2.000879 c -0.1702,-0.644087 -0.42858,-1.27586 -0.77573,-1.877147 -2.09887,-3.635342 -6.78486,-4.892649 -10.4202,-2.793783 l -8.598284,4.964219 c -3.635343,2.098866 -4.891488,6.786868 -2.792622,10.42221 2.098865,3.635342 6.785707,4.88948 10.421046,2.790613 z"
   id="path3" /><path
   id="path9"
   style="fill:url(#linearGradient11);stroke:#000000;stroke-width:0.249658;stroke-dasharray:none;stroke-opacity:1"
   d="m 143.36194,0.388741 -3.98152,3.981527 h 2.66302 V 9.696309 H 136.7174 V 7.033288 l -3.99453,3.994531 3.99453,3.99453 v -2.66302 h 5.32604 v 5.32604 h -2.66302 l 3.98152,3.981527 4.00754,-3.981527 h -2.66302 v -5.32604 h 5.32604 v 2.66302 l 3.96852,-3.99453 -3.96852,-3.994531 v 2.663021 h -5.32604 V 4.370268 h 2.66302 z" /><path
   style="color:#000000;fill:#eaa211;fill-opacity:1;stroke:#000000;stroke-width:0.258465;stroke-linecap:round;stroke-dasharray:none;stroke-opacity:1"
   d="m 150.93461,11.059524 c 1.81767,-1.049433 2.44532,-3.391848 1.39589,-5.20952 -1.04944,-1.817671 -3.39243,-2.446324 -5.2101,-1.396891 l -3.51967,2.032082 a 0.8186095,0.8186095 0 0 0 -0.29973,1.11859 0.8186095,0.8186095 0 0 0 1.11859,0.299725 l 3.51967,-2.032083 c 1.0567,-0.610082 2.36284,-0.259253 2.97292,0.797442 0.61009,1.056694 0.26026,2.362258 -0.79643,2.972341 l -4.30015,2.48269 c -1.05669,0.610083 -2.36226,0.260257 -2.97234,-0.796436 -0.1009,-0.174774 -0.17567,-0.355649 -0.22409,-0.538928 a 0.8186095,0.8186095 0 0 0 -1.00044,-0.582226 0.8186095,0.8186095 0 0 0 -0.58223,1.000439 c 0.0851,0.322057 0.21487,0.63894 0.38845,0.939579 1.04943,1.817671 3.39185,2.445319 5.20952,1.395886 z"
   id="path10" /><path
   style="color:#000000;fill:#fd34e5;fill-opacity:1;stroke:#000000;stroke-width:0.258465;stroke-linecap:round;stroke-dasharray:none;stroke-opacity:1"
   d="m 143.12283,15.569656 a 0.81860805,0.81860805 0 0 0 0.29872,-1.118009 0.81860805,0.81860805 0 0 0 -1.11758,-0.300305 l -3.51967,2.032083 c -1.05669,0.610083 -2.36326,0.260838 -2.97334,-0.795857 -0.61009,-1.056695 -0.25984,-2.363843 0.79686,-2.973926 l 4.29913,-2.48211 c 1.0567,-0.610083 2.36385,-0.259834 2.97393,0.796861 0.1009,0.174768 0.17408,0.355216 0.22251,0.538503 a 0.81860805,0.81860805 0 0 0 1.00044,0.582226 0.81860805,0.81860805 0 0 0 0.58223,-1.000439 c -0.0851,-0.322044 -0.21429,-0.63793 -0.38787,-0.938574 -1.04943,-1.817671 -3.39243,-2.446324 -5.2101,-1.396891 l -4.29914,2.482109 c -1.81767,1.049433 -2.44574,3.393434 -1.39631,5.211105 1.04943,1.817671 3.39286,2.44474 5.21052,1.395307 z"
   id="path11" /></svg>
