<?xml version="1.0" encoding="UTF-8" standalone="no"?>
<svg
   version="1.1"
   id="Layer_1"
   x="0px"
   y="0px"
   viewBox="0 0 122.88 122.77"
   style="enable-background:new 0 0 122.88 122.77"
   xml:space="preserve"
   sodipodi:docname="default-icon.svg"
   inkscape:version="1.3 (0e150ed, 2023-07-21)"
   inkscape:export-filename="default-icon.png"
   inkscape:export-xdpi="50"
   inkscape:export-ydpi="50"
   xmlns:inkscape="http://www.inkscape.org/namespaces/inkscape"
   xmlns:sodipodi="http://sodipodi.sourceforge.net/DTD/sodipodi-0.dtd"
   xmlns="http://www.w3.org/2000/svg"
   xmlns:svg="http://www.w3.org/2000/svg"><defs
     id="defs1" /><sodipodi:namedview
     id="namedview1"
     pagecolor="#505050"
     bordercolor="#ffffff"
     borderopacity="1"
     inkscape:showpageshadow="0"
     inkscape:pageopacity="0"
     inkscape:pagecheckerboard="1"
     inkscape:deskcolor="#505050"
     inkscape:zoom="1.9222938"
     inkscape:cx="61.645104"
     inkscape:cy="61.645104"
     inkscape:window-width="1224"
     inkscape:window-height="808"
     inkscape:window-x="0"
     inkscape:window-y="38"
     inkscape:window-maximized="0"
     inkscape:current-layer="Layer_1" /><style
     type="text/css"
     id="style1"><![CDATA[
	.st0{fill-rule:evenodd;clip-rule:evenodd;}
]]></style><path
     id="path1"
     style="fill:#fa7f07;fill-opacity:1;stroke:#000000;stroke-opacity:1;stroke-width:2;stroke-dasharray:none"
     d="M 59.644531 0.00390625 C 59.255938 0.0037500002 58.854453 0.041640703 58.439453 0.11914062 L 46.259766 2.3105469 C 44.699767 2.6205466 43.479452 3.3492201 42.439453 4.6992188 C 41.499454 6.0492174 41.090391 7.4806267 41.400391 9.140625 L 42.960938 18.019531 C 40.980939 18.84953 39.139139 19.790392 37.369141 20.900391 C 35.599142 21.94039 33.87078 23.190392 32.300781 24.400391 L 24.039062 18.710938 C 22.689064 17.770938 21.259217 17.359922 19.699219 17.669922 C 18.13922 17.979922 16.820858 18.819923 15.880859 20.169922 L 8.8496094 30.210938 C 7.9096103 31.560936 7.5005472 33.090392 7.8105469 34.650391 C 8.1205466 36.320389 8.9605482 37.530704 10.310547 38.470703 L 17.740234 43.740234 C 16.910235 45.610233 16.279765 47.560627 15.759766 49.640625 C 15.239766 51.720623 14.819765 53.670002 14.509766 55.75 L 4.8007812 57.419922 C -3.4392105 58.96992 1.2204698 70.780396 2.2304688 76.400391 C 2.5404684 77.960389 3.2698451 79.180704 4.5898438 80.220703 C 5.9398424 81.160702 7.3692985 81.569765 9.0292969 81.259766 L 17.910156 79.699219 C 18.740155 81.679217 19.679064 83.519064 20.789062 85.289062 C 21.829061 87.059061 23.079064 88.790939 24.289062 90.460938 L 18.599609 98.619141 C 17.65961 99.969139 17.250547 101.40094 17.560547 102.96094 C 17.870547 104.52094 18.699533 105.8393 20.019531 106.7793 L 30.150391 113.89062 C 31.500389 114.83062 33.029845 115.14008 34.589844 114.83008 C 36.149842 114.52008 37.469767 113.7907 38.509766 112.4707 L 43.789062 104.93945 C 45.659061 105.76945 47.609455 106.39992 49.689453 106.91992 C 51.769451 107.43992 53.710783 107.85992 55.800781 108.16992 L 57.470703 117.89062 C 57.780703 119.56062 58.620079 120.77094 59.830078 121.71094 C 61.180077 122.65094 62.609533 122.96039 64.269531 122.65039 L 76.449219 120.46094 C 78.009217 120.15094 79.229532 119.41961 80.269531 118.09961 C 81.20953 116.74961 81.620547 115.32015 81.310547 113.66016 L 79.75 104.7793 C 81.729998 103.9493 83.569846 103.01039 85.339844 101.90039 C 87.109842 100.86039 88.849767 99.640389 90.509766 98.400391 L 98.669922 104.08984 C 100.01992 105.02984 101.44938 105.44086 103.10938 105.13086 C 104.77937 104.82086 105.98969 103.97992 106.92969 102.66992 L 114.03906 92.529297 C 114.97906 91.179298 115.29047 89.649842 114.98047 88.089844 C 114.67047 86.529845 113.93984 85.209921 112.58984 84.169922 L 105.05078 79 C 105.88078 77.130002 106.5093 75.179607 107.0293 73.099609 C 107.5493 71.019611 107.9693 69.070232 108.2793 66.990234 L 118 65.320312 C 119.67 65.010313 120.88031 64.169686 121.82031 62.929688 C 122.76031 61.579689 123.06977 60.150233 122.75977 58.490234 L 120.57031 46.310547 C 120.26031 44.750548 119.53094 43.530233 118.21094 42.490234 C 116.86094 41.550235 115.42953 41.139219 113.76953 41.449219 L 104.89062 43.009766 C 104.06063 41.139767 103.11976 39.29992 102.00977 37.419922 C 100.96977 35.549924 99.719764 33.919608 98.509766 32.349609 L 104.19922 24.089844 C 105.13922 22.739845 105.55023 21.309998 105.24023 19.75 C 104.93023 18.190002 104.0893 16.869687 102.7793 15.929688 L 92.730469 8.8691406 L 92.449219 8.9804688 C 91.09922 8.0404697 89.569764 7.6294534 88.009766 7.9394531 C 86.449767 8.2494528 85.129452 9.0903919 84.189453 10.400391 L 78.919922 17.830078 C 77.049924 17.000079 75.099529 16.369609 73.019531 15.849609 C 70.939533 15.32961 68.990154 14.909609 66.910156 14.599609 L 65.240234 4.8808594 C 64.940235 3.210861 64.100858 2.0005459 62.880859 1.0605469 C 61.86836 0.35554758 60.810311 0.0043749995 59.644531 0.00390625 z M 61.439453 23.679688 C 82.259432 23.679688 99.150391 40.560646 99.150391 61.390625 C 99.150391 82.210604 82.269432 99.099609 61.439453 99.099609 C 40.609474 99.099609 23.730469 82.210839 23.730469 61.380859 C 23.730469 40.56088 40.619474 23.679688 61.439453 23.679688 z " /><path
     id="path4"
     style="fill:#59d900;fill-opacity:1;stroke:#000000;stroke-opacity:1;stroke-width:2;stroke-dasharray:none"
     d="M 75.197266 43.390625 C 74.35088 43.417969 73.645702 44.242188 72.720703 45.179688 L 57.789062 60.339844 L 49.119141 52.089844 C 48.049142 51.069845 47.219452 51.000314 46.189453 52.070312 L 39.330078 59.189453 C 38.440079 60.079452 38.359923 60.96961 39.169922 61.849609 L 54.070312 76.650391 C 57.990309 80.530387 57.309926 80.299527 61.169922 76.519531 L 82.869141 55.220703 C 84.699139 53.440705 84.809373 52.320389 82.859375 50.400391 L 76.949219 44.349609 C 76.262969 43.64461 75.705097 43.374219 75.197266 43.390625 z " /></svg>
