<?xml version="1.0" encoding="UTF-8" standalone="no"?>
<!-- Uploaded to: SVG Repo, www.svgrepo.com, Generator: SVG Repo Mixer Tools -->

<svg
   fill="#000000"
   version="1.1"
   id="Capa_1"
   width="224"
   height="128"
   viewBox="0 0 154.38948 88.22256"
   xml:space="preserve"
   sodipodi:docname="default.svg"
   inkscape:version="1.3 (0e150ed, 2023-07-21)"
   inkscape:export-filename="default.png"
   inkscape:export-xdpi="96"
   inkscape:export-ydpi="96"
   xmlns:inkscape="http://www.inkscape.org/namespaces/inkscape"
   xmlns:sodipodi="http://sodipodi.sourceforge.net/DTD/sodipodi-0.dtd"
   xmlns:xlink="http://www.w3.org/1999/xlink"
   xmlns="http://www.w3.org/2000/svg"
   xmlns:svg="http://www.w3.org/2000/svg"><defs
   id="defs1"><linearGradient
     id="linearGradient7"
     inkscape:collect="always"><stop
       style="stop-color:#00488f;stop-opacity:1;"
       offset="0"
       id="stop7" /><stop
       style="stop-color:#4fa4ff;stop-opacity:1;"
       offset="1"
       id="stop8" /></linearGradient><linearGradient
     inkscape:collect="always"
     xlink:href="#linearGradient7"
     id="linearGradient8"
     x1="68.969574"
     y1="79.475365"
     x2="24.665854"
     y2="1.8908941"
     gradientUnits="userSpaceOnUse"
     gradientTransform="matrix(0.96592806,0,0,0.96592806,1.5029567,1.5029567)" /><linearGradient
     inkscape:collect="always"
     xlink:href="#linearGradient7"
     id="linearGradient14"
     gradientUnits="userSpaceOnUse"
     gradientTransform="matrix(0.24148201,0,0,0.24148201,132.78576,0.43203297)"
     x1="68.969574"
     y1="79.475365"
     x2="24.665854"
     y2="1.8908941" /><linearGradient
     inkscape:collect="always"
     xlink:href="#linearGradient7"
     id="linearGradient4"
     gradientUnits="userSpaceOnUse"
     gradientTransform="matrix(0.48296403,0,0,0.48296403,88.974039,0.75147735)"
     x1="68.969574"
     y1="79.475365"
     x2="24.665854"
     y2="1.8908941" /></defs><sodipodi:namedview
   id="namedview1"
   pagecolor="#505050"
   bordercolor="#ffffff"
   borderopacity="1"
   inkscape:showpageshadow="0"
   inkscape:pageopacity="0"
   inkscape:pagecheckerboard="1"
   inkscape:deskcolor="#505050"
   showgrid="true"
   inkscape:zoom="3.56"
   inkscape:cx="161.3764"
   inkscape:cy="44.101124"
   inkscape:window-width="1072"
   inkscape:window-height="879"
   inkscape:window-x="0"
   inkscape:window-y="38"
   inkscape:window-maximized="0"
   inkscape:current-layer="Capa_1"><inkscape:grid
     id="grid1"
     units="px"
     originx="0"
     originy="0"
     spacingx="5.51391"
     spacingy="5.51391"
     empcolor="#0099e5"
     empopacity="0.30196078"
     color="#0099e5"
     opacity="0.14901961"
     empspacing="4"
     dotted="false"
     gridanglex="30"
     gridanglez="30"
     visible="true" /></sodipodi:namedview>&#10;&#10;<path
   id="rect1"
   style="fill:url(#linearGradient8);stroke:#000000;stroke-width:0.998633;stroke-dasharray:none;stroke-opacity:1"
   d="M 44.112421,1.5549675 28.186315,17.481077 H 38.838396 V 38.785239 H 17.534234 V 28.133158 L 1.556113,44.111279 17.534234,60.0894 V 49.437319 H 38.838396 V 70.741481 H 28.186315 L 44.112421,86.66759 60.142557,70.741481 H 49.490476 V 49.437319 H 70.794638 V 60.0894 l 15.8741,-15.978121 -15.8741,-15.978121 V 38.785239 H 49.490476 V 17.481077 h 10.652081 z" /><path
   id="path2"
   style="fill:url(#linearGradient4);stroke:#000000;stroke-width:0.499317;stroke-dasharray:none;stroke-opacity:1"
   d="m 110.27877,0.77748275 -7.96305,7.96305475 h 5.32604 V 19.392618 H 96.989678 v -5.32604 l -7.98906,7.98906 7.98906,7.989061 v -5.326041 h 10.652082 v 10.652081 h -5.32604 l 7.96305,7.963055 8.01507,-7.963055 H 112.9678 V 24.718658 h 10.65208 v 5.326041 l 7.93705,-7.989061 -7.93705,-7.98906 v 5.32604 H 112.9678 V 8.7405375 h 5.32604 z" /><path
   id="path12"
   style="fill:url(#linearGradient14);stroke:#000000;stroke-width:0.249658;stroke-dasharray:none;stroke-opacity:1"
   d="M 143.43813,0.44503568 139.4566,4.426563 h 2.66302 v 5.3260406 h -5.32604 V 7.0895833 l -3.99453,3.9945307 3.99453,3.99453 v -2.66302 h 5.32604 v 5.32604 h -2.66302 l 3.98153,3.981527 4.00753,-3.981527 h -2.66302 v -5.32604 h 5.32604 v 2.66302 l 3.96852,-3.99453 -3.96852,-3.9945307 v 2.6630203 h -5.32604 V 4.426563 h 2.66302 z" /><path
   id="path1"
   style="fill:#fa7f07;fill-opacity:1;stroke:#000000;stroke-width:0.997544;stroke-dasharray:none;stroke-opacity:1"
   d="m 43.874011,9.4862933 c -0.218625,-8.8e-5 -0.444501,0.02123 -0.677989,0.06483 l -6.852483,1.2329197 c -0.877677,0.174411 -1.564245,0.584374 -2.149366,1.343904 -0.528855,0.75953 -0.759003,1.564863 -0.584593,2.498804 l 0.877988,4.99541 c -1.113976,0.46697 -2.150206,0.996315 -3.146027,1.620816 -0.995832,0.58512 -1.968234,1.288391 -2.851543,1.969155 l -4.648166,-3.200974 c -0.759533,-0.528858 -1.563986,-0.760103 -2.441673,-0.585691 -0.877677,0.17441 -1.619402,0.647007 -2.148267,1.406537 l -3.955885,5.649232 c -0.528855,0.759529 -0.759003,1.620025 -0.584593,2.497705 0.174412,0.939566 0.647011,1.620508 1.406543,2.149366 l 4.180059,2.96472 c -0.466977,1.05209 -0.82169,2.149411 -1.114246,3.319651 -0.292556,1.170239 -0.528855,2.26699 -0.703276,3.437229 l -5.46242,0.939524 c -4.6359496,0.872053 -2.014337,7.51681 -1.446101,10.678705 0.174411,0.877679 0.584769,1.564248 1.327427,2.149369 0.759532,0.528857 1.563768,0.759003 2.497701,0.584593 l 4.996511,-0.877989 c 0.466968,1.113977 0.99521,2.149104 1.619724,3.144931 0.585111,0.995829 1.288377,1.970212 1.969146,2.909779 l -3.200977,4.589931 c -0.528855,0.759529 -0.759004,1.565083 -0.584592,2.442763 0.17441,0.87768 0.640817,1.61941 1.383464,2.148269 l 5.699779,4.000939 c 0.759532,0.528858 1.620024,0.702966 2.49771,0.528554 0.877678,-0.174409 1.620284,-0.584771 2.205405,-1.327422 l 2.970217,-4.237199 c 1.052088,0.46697 2.149408,0.821682 3.31965,1.114243 1.170233,0.292561 2.26246,0.528858 3.438325,0.703269 l 0.939524,5.469017 c 0.174411,0.939567 0.646657,1.620514 1.327427,2.149371 0.759522,0.528859 1.563767,0.702961 2.497701,0.528549 l 6.852481,-1.231818 c 0.877678,-0.174411 1.564245,-0.585868 2.149367,-1.328521 0.528855,-0.759531 0.760103,-1.563767 0.585692,-2.497703 l -0.877988,-4.996505 c 1.113976,-0.466971 2.149106,-0.995217 3.144938,-1.61972 0.995822,-0.585122 1.974728,-1.271512 2.908671,-1.969155 l 4.591029,3.200973 c 0.759533,0.528859 1.563768,0.760105 2.497711,0.585695 0.939566,-0.17441 1.620501,-0.647537 2.149356,-1.384563 l 3.99985,-5.705272 c 0.528855,-0.759531 0.704064,-1.620026 0.529654,-2.497705 -0.174412,-0.877679 -0.585475,-1.620289 -1.345007,-2.20541 l -4.241595,-2.908678 c 0.466977,-1.052091 0.820592,-2.149413 1.113146,-3.319652 0.292556,-1.170239 0.528856,-2.26699 0.703277,-3.437229 l 5.469007,-0.939523 c 0.939576,-0.17441 1.620511,-0.647361 2.149376,-1.345003 0.528855,-0.759529 0.702955,-1.563764 0.528554,-2.497704 l -1.23183,-6.852483 c -0.174411,-0.877679 -0.584769,-1.564247 -1.327417,-2.149366 -0.759532,-0.528858 -1.564867,-0.760101 -2.4988,-0.58569 l -4.995423,0.877988 c -0.466956,-1.05209 -0.996309,-2.087217 -1.620801,-3.144933 -0.585122,-1.052091 -1.288399,-1.969332 -1.969157,-2.852637 l 3.200966,-4.647072 c 0.528855,-0.75953 0.760104,-1.563984 0.585693,-2.441663 -0.174412,-0.877679 -0.647529,-1.620508 -1.384555,-2.149367 l -5.653633,-3.972374 -0.158232,0.06263 c -0.759532,-0.528857 -1.620024,-0.760102 -2.497711,-0.585691 -0.877677,0.174411 -1.620502,0.647535 -2.149367,1.384561 l -2.964719,4.180058 C 53.666559,19.0486 52.56923,18.693887 51.398997,18.401328 c -1.170243,-0.29256 -2.266981,-0.52886 -3.437225,-0.703269 l -0.939524,-5.46792 C 46.85347,11.290572 46.381213,10.60963 45.694822,10.080772 45.125175,9.6841283 44.529899,9.4865543 43.874011,9.4862883 Z m 1.009855,13.3203627 c 11.713643,0 21.216757,9.497486 21.216757,21.216756 0,11.713643 -9.497482,21.215658 -21.216757,21.215658 -11.719265,0 -21.215658,-9.501883 -21.215658,-21.221153 0,-11.713643 9.502016,-21.211262 21.215658,-21.211261 z" /><path
   id="path4"
   style="fill:#59d900;fill-opacity:1;stroke:#000000;stroke-width:0.997544;stroke-dasharray:none;stroke-opacity:1"
   d="m 55.010843,30.766493 c -0.623078,0.02013 -1.142215,0.626894 -1.823161,1.317052 L 42.195481,43.243967 35.812953,37.170582 c -0.787697,-0.750891 -1.398481,-0.802076 -2.156741,-0.01437 l -5.04965,5.240885 c -0.655187,0.65519 -0.714209,1.310494 -0.117931,1.958322 l 10.969184,10.895862 c 2.885784,2.856331 2.384914,2.686378 5.226523,-0.09633 L 60.658629,39.475425 c 1.347181,-1.310377 1.428336,-2.135119 -0.0082,-3.54856 l -4.350871,-4.454391 c -0.5052,-0.518999 -0.915891,-0.718051 -1.289735,-0.705973 z" /><use
   x="0"
   y="0"
   xlink:href="#path1"
   id="use11"
   transform="matrix(0.5,0,0,0.5,88.037987,-0.01824477)" /><use
   x="0"
   y="0"
   xlink:href="#path4"
   id="use12"
   transform="matrix(0.5,0,0,0.5,88.037987,-0.01824477)" /><use
   x="0"
   y="0"
   xlink:href="#path1"
   id="use13"
   transform="matrix(0.25,0,0,0.25,132.14069,0.09411402)" /><use
   x="0"
   y="0"
   xlink:href="#path4"
   id="use14"
   transform="matrix(0.25,0,0,0.25,132.14069,0.09411402)" /></svg>
