<?xml version="1.0" encoding="UTF-8" standalone="no"?>
<!-- Created with Inkscape (http://www.inkscape.org/) -->

<svg
   width="640"
   height="320"
   viewBox="0 0 20 10"
   version="1.1"
   id="svg1"
   inkscape:version="1.3 (0e150ed, 2023-07-21)"
   sodipodi:docname="io-point.svg"
   inkscape:export-filename="wow-smart.png"
   inkscape:export-xdpi="96"
   inkscape:export-ydpi="96"
   xmlns:inkscape="http://www.inkscape.org/namespaces/inkscape"
   xmlns:sodipodi="http://sodipodi.sourceforge.net/DTD/sodipodi-0.dtd"
   xmlns:xlink="http://www.w3.org/1999/xlink"
   xmlns="http://www.w3.org/2000/svg"
   xmlns:svg="http://www.w3.org/2000/svg">
  <sodipodi:namedview
     id="namedview1"
     pagecolor="#505050"
     bordercolor="#ffffff"
     borderopacity="1"
     inkscape:showpageshadow="0"
     inkscape:pageopacity="0"
     inkscape:pagecheckerboard="1"
     inkscape:deskcolor="#505050"
     inkscape:document-units="px"
     showgrid="true"
     inkscape:zoom="1.34"
     inkscape:cx="269.02985"
     inkscape:cy="153.73134"
     inkscape:window-width="1320"
     inkscape:window-height="811"
     inkscape:window-x="0"
     inkscape:window-y="38"
     inkscape:window-maximized="0"
     inkscape:current-layer="layer1">
    <inkscape:grid
       id="grid1"
       units="px"
       originx="0"
       originy="0"
       spacingx="0.25"
       spacingy="0.25"
       empcolor="#0099e5"
       empopacity="0.30196078"
       color="#0099e5"
       opacity="0.14901961"
       empspacing="4"
       dotted="false"
       gridanglex="30"
       gridanglez="30"
       visible="true" />
    <inkscape:grid
       id="grid2"
       units="px"
       originx="0"
       originy="0"
       spacingx="5"
       spacingy="5"
       empcolor="#e50000"
       empopacity="0.30196078"
       color="#e50000"
       opacity="0.4627451"
       empspacing="5"
       dotted="false"
       gridanglex="30"
       gridanglez="30"
       visible="true" />
  </sodipodi:namedview>
  <defs
     id="defs1">
    <linearGradient
       id="linearGradient16"
       inkscape:collect="always">
      <stop
         style="stop-color:#a8a8a8;stop-opacity:1;"
         offset="0"
         id="stop16" />
      <stop
         style="stop-color:#cfcfcf;stop-opacity:1;"
         offset="1"
         id="stop17" />
    </linearGradient>
    <linearGradient
       id="linearGradient2"
       inkscape:collect="always">
      <stop
         style="stop-color:#313d27;stop-opacity:1;"
         offset="0"
         id="stop2" />
      <stop
         style="stop-color:#5b6e7f;stop-opacity:1;"
         offset="1"
         id="stop3" />
    </linearGradient>
    <linearGradient
       inkscape:collect="always"
       xlink:href="#linearGradient2"
       id="linearGradient3"
       x1="1.6657282"
       y1="3.5684118"
       x2="2.4117837"
       y2="0.17126498"
       gradientUnits="userSpaceOnUse"
       gradientTransform="matrix(0.98098797,0,0,0.99992392,0.03814188,0.03603315)" />
    <linearGradient
       inkscape:collect="always"
       xlink:href="#linearGradient16"
       id="linearGradient18"
       gradientUnits="userSpaceOnUse"
       x1="0.092295557"
       y1="-2.9842343"
       x2="1.0244464"
       y2="-2.9842343"
       gradientTransform="matrix(0.03065828,0,0,0.03065828,0.00221468,0.4916805)" />
    <linearGradient
       inkscape:collect="always"
       xlink:href="#linearGradient16"
       id="linearGradient30"
       gradientUnits="userSpaceOnUse"
       gradientTransform="matrix(0.03065828,0,0,0.03065828,-0.75509587,-0.17040079)"
       x1="0.092295557"
       y1="-2.9842343"
       x2="1.0244464"
       y2="-2.9842343" />
    <linearGradient
       inkscape:collect="always"
       xlink:href="#linearGradient16"
       id="linearGradient31"
       gradientUnits="userSpaceOnUse"
       gradientTransform="matrix(0.03065828,0,0,0.03065828,-0.57675819,1.776934)"
       x1="0.092295557"
       y1="-2.9842343"
       x2="1.0244464"
       y2="-2.9842343" />
  </defs>
  <g
     inkscape:label="Layer 1"
     inkscape:groupmode="layer"
     id="layer1">
    <path
       id="rect1-4"
       style="fill:#372237;fill-opacity:1;stroke:none;stroke-width:0.0306583;stroke-opacity:1"
       d="m 0.77947998,0.05786133 c -0.39273672,0 -0.70892334,0.31618662 -0.70892334,0.70892334 V 3.2387695 c 0,0.3927366 0.31618662,0.7089234 0.70892334,0.7089234 H 1.0337524 a 0.47874797,0.26699407 0 0 1 0.477356,-0.2546997 0.47874797,0.26699407 0 0 1 0.4781494,0.2546997 h 0.011231 A 0.47874797,0.26699407 0 0 1 2.4777832,3.6929932 0.47874797,0.26699407 0 0 1 2.9559937,3.9476929 h 0.2770385 c 0.3927366,0 0.7089234,-0.3161868 0.7089234,-0.7089234 V 0.76678467 c 0,-0.39273672 -0.3161868,-0.70892334 -0.7089234,-0.70892334 z M 2,0.25 A 0.25000003,0.25000003 0 0 1 2.25,0.5 0.25000003,0.25000003 0 0 1 2,0.75 0.25000003,0.25000003 0 0 1 1.75,0.5 0.25000003,0.25000003 0 0 1 2,0.25 Z M 0.5,1.75 A 0.25000003,0.25000003 0 0 1 0.75,2 0.25000003,0.25000003 0 0 1 0.5,2.25 0.25000003,0.25000003 0 0 1 0.25,2 0.25000003,0.25000003 0 0 1 0.5,1.75 Z m 3,0 A 0.25000003,0.25000003 0 0 1 3.75,2 0.25000003,0.25000003 0 0 1 3.5,2.25 0.25000003,0.25000003 0 0 1 3.25,2 0.25000003,0.25000003 0 0 1 3.5,1.75 Z M 2,3.25 A 0.25,0.25 0 0 1 2.25,3.5 0.25,0.25 0 0 1 2,3.75 0.25,0.25 0 0 1 1.75,3.5 0.25,0.25 0 0 1 2,3.25 Z" />
    <path
       id="rect1"
       style="fill:url(#linearGradient3);stroke:#1fb735;stroke-width:0.0309503;stroke-opacity:1"
       d="m 0.85736084,0.1439209 c -0.40028702,0 -0.72253418,0.32230819 -0.72253418,0.72259521 V 2.822998 c 0,0.4002871 0.32224716,0.7225342 0.72253418,0.7225342 H 1.7546997 A 0.25,0.25 0 0 1 1.75,3.5 0.25,0.25 0 0 1 2,3.25 0.25,0.25 0 0 1 2.25,3.5 0.25,0.25 0 0 1 2.2453,3.545532 h 0.8815918 c 0.400287,0 0.7225342,-0.3222471 0.7225342,-0.7225342 V 0.86651611 C 3.849426,0.46622909 3.5271788,0.1439209 3.1268918,0.1439209 Z M 2,0.25 A 0.25,0.25 0 0 1 2.25,0.5 0.25,0.25 0 0 1 2,0.75 0.25,0.25 0 0 1 1.75,0.5 0.25,0.25 0 0 1 2,0.25 Z M 0.5,1.75 A 0.25,0.25 0 0 1 0.75,2 0.25,0.25 0 0 1 0.5,2.25 0.25,0.25 0 0 1 0.25,2 0.25,0.25 0 0 1 0.5,1.75 Z m 3,0 A 0.25,0.25 0 0 1 3.75,2 0.25,0.25 0 0 1 3.5,2.25 0.25,0.25 0 0 1 3.25,2 0.25,0.25 0 0 1 3.5,1.75 Z" />
    <text
       xml:space="preserve"
       style="font-size:0.367899px;font-variation-settings:normal;opacity:1;vector-effect:none;fill:url(#linearGradient18);fill-opacity:1;stroke:#6a1fb7;stroke-width:0.0306583;stroke-linecap:butt;stroke-linejoin:miter;stroke-miterlimit:4;stroke-dasharray:none;stroke-dashoffset:0;stroke-opacity:1;-inkscape-stroke:none"
       x="1.3832184"
       y="1.5136234"
       id="text17"><tspan
         sodipodi:role="line"
         style="fill:url(#linearGradient18);stroke:none;stroke-width:0.0306583"
         x="1.3832184"
         y="1.5136234"
         id="tspan23">such smart</tspan></text>
    <text
       xml:space="preserve"
       style="font-size:0.367899px;font-variation-settings:normal;opacity:1;vector-effect:none;fill:url(#linearGradient30);fill-opacity:1;stroke:#6a1fb7;stroke-width:0.0306583;stroke-linecap:butt;stroke-linejoin:miter;stroke-miterlimit:4;stroke-dasharray:none;stroke-dashoffset:0;stroke-opacity:1;-inkscape-stroke:none"
       x="0.62590778"
       y="0.85154241"
       id="text29"><tspan
         sodipodi:role="line"
         style="fill:url(#linearGradient30);stroke:none;stroke-width:0.0306583"
         x="0.62590778"
         y="0.85154241"
         id="tspan29">wow</tspan></text>
    <text
       xml:space="preserve"
       style="font-size:0.367899px;font-variation-settings:normal;opacity:1;vector-effect:none;fill:url(#linearGradient31);fill-opacity:1;stroke:#6a1fb7;stroke-width:0.0306583;stroke-linecap:butt;stroke-linejoin:miter;stroke-miterlimit:4;stroke-dasharray:none;stroke-dashoffset:0;stroke-opacity:1;-inkscape-stroke:none"
       x="0.80424541"
       y="2.7988772"
       id="text30"><tspan
         sodipodi:role="line"
         style="fill:url(#linearGradient31);stroke:none;stroke-width:0.0306583"
         x="0.80424541"
         y="2.7988772"
         id="tspan30">much cheese</tspan></text>
    <text
       xml:space="preserve"
       style="font-size:0.375px;fill:#59d900;stroke-width:0.0625"
       x="3.1307871"
       y="2.5"
       id="text1"><tspan
         sodipodi:role="line"
         id="tspan1"
         style="stroke-width:0.0625"
         x="3.1307871"
         y="2.5" /></text>
  </g>
</svg>
