<?xml version="1.0" encoding="UTF-8" standalone="no"?>
<!-- Uploaded to: SVG Repo, www.svgrepo.com, Generator: SVG Repo Mixer Tools -->

<svg
   fill="#000000"
   version="1.1"
   id="Capa_1"
   width="224"
   height="128"
   viewBox="0 0 154.38948 88.22256"
   xml:space="preserve"
   sodipodi:docname="leaf-svgrepo-com.svg"
   inkscape:version="1.3 (0e150ed, 2023-07-21)"
   inkscape:export-filename="leaf-svgrepo-com.png"
   inkscape:export-xdpi="96"
   inkscape:export-ydpi="96"
   xmlns:inkscape="http://www.inkscape.org/namespaces/inkscape"
   xmlns:sodipodi="http://sodipodi.sourceforge.net/DTD/sodipodi-0.dtd"
   xmlns:xlink="http://www.w3.org/1999/xlink"
   xmlns="http://www.w3.org/2000/svg"
   xmlns:svg="http://www.w3.org/2000/svg"><defs
   id="defs1"><linearGradient
     id="linearGradient7"
     inkscape:collect="always"><stop
       style="stop-color:#00488f;stop-opacity:1;"
       offset="0"
       id="stop7" /><stop
       style="stop-color:#4fa4ff;stop-opacity:1;"
       offset="1"
       id="stop8" /></linearGradient><linearGradient
     id="linearGradient5"
     inkscape:collect="always"><stop
       style="stop-color:#438f0a;stop-opacity:1;"
       offset="0"
       id="stop5" /><stop
       style="stop-color:#6ce00e;stop-opacity:1;"
       offset="1"
       id="stop6" /></linearGradient><linearGradient
     inkscape:collect="always"
     xlink:href="#linearGradient5"
     id="linearGradient6"
     x1="127.56178"
     y1="539.08643"
     x2="432.55414"
     y2="44.754707"
     gradientUnits="userSpaceOnUse" /><linearGradient
     inkscape:collect="always"
     xlink:href="#linearGradient7"
     id="linearGradient8"
     x1="68.969574"
     y1="79.475365"
     x2="24.665854"
     y2="1.8908941"
     gradientUnits="userSpaceOnUse"
     gradientTransform="matrix(0.96592806,0,0,0.96592806,1.5029567,1.5029567)" /><linearGradient
     inkscape:collect="always"
     xlink:href="#linearGradient5"
     id="linearGradient9"
     gradientUnits="userSpaceOnUse"
     x1="402.5965"
     y1="396.05908"
     x2="196.78519"
     y2="116.21295"
     gradientTransform="matrix(0.96592806,0,0,0.96592806,9.3942845,9.3876352)" /><linearGradient
     inkscape:collect="always"
     xlink:href="#linearGradient7"
     id="linearGradient14"
     gradientUnits="userSpaceOnUse"
     gradientTransform="matrix(0.96592806,0,0,0.96592806,1.5029567,1.5029567)"
     x1="68.969574"
     y1="79.475365"
     x2="24.665854"
     y2="1.8908941" /><linearGradient
     inkscape:collect="always"
     xlink:href="#linearGradient5"
     id="linearGradient15"
     gradientUnits="userSpaceOnUse"
     gradientTransform="matrix(0.96592806,0,0,0.96592806,9.3942845,9.3876352)"
     x1="402.5965"
     y1="396.05908"
     x2="196.78519"
     y2="116.21295" /><linearGradient
     inkscape:collect="always"
     xlink:href="#linearGradient5"
     id="linearGradient16"
     gradientUnits="userSpaceOnUse"
     x1="127.56178"
     y1="539.08643"
     x2="432.55414"
     y2="44.754707" /></defs><sodipodi:namedview
   id="namedview1"
   pagecolor="#505050"
   bordercolor="#ffffff"
   borderopacity="1"
   inkscape:showpageshadow="0"
   inkscape:pageopacity="0"
   inkscape:pagecheckerboard="1"
   inkscape:deskcolor="#505050"
   showgrid="true"
   inkscape:zoom="1.9"
   inkscape:cx="121.31579"
   inkscape:cy="53.684211"
   inkscape:window-width="1072"
   inkscape:window-height="879"
   inkscape:window-x="0"
   inkscape:window-y="38"
   inkscape:window-maximized="0"
   inkscape:current-layer="Capa_1"><inkscape:grid
     id="grid1"
     units="px"
     originx="0"
     originy="0"
     spacingx="5.51391"
     spacingy="5.51391"
     empcolor="#0099e5"
     empopacity="0.30196078"
     color="#0099e5"
     opacity="0.14901961"
     empspacing="4"
     dotted="false"
     gridanglex="30"
     gridanglez="30"
     visible="true" /></sodipodi:namedview>&#10;&#10;<g
   id="g10"><path
     id="rect1"
     style="fill:url(#linearGradient8);stroke:#000000;stroke-width:0.998633;stroke-dasharray:none;stroke-opacity:1"
     d="M 44.112421,1.5549675 28.186315,17.481077 H 38.838396 V 38.785239 H 17.534234 V 28.133158 L 1.556113,44.111279 17.534234,60.0894 V 49.437319 H 38.838396 V 70.741481 H 28.186315 L 44.112421,86.66759 60.142557,70.741481 H 49.490476 V 49.437319 H 70.794638 V 60.0894 l 15.8741,-15.978121 -15.8741,-15.978121 V 38.785239 H 49.490476 V 17.481077 h 10.652081 z" /><g
     id="g1"
     transform="matrix(0.1120311,0.02014008,-0.01920855,0.10684939,18.514577,9.1187049)"
     style="fill:url(#linearGradient6);fill-opacity:1;stroke:#000000;stroke-width:10.2114;stroke-dasharray:none;stroke-opacity:1">&#10;	<path
   d="m 408.99389,9.3876352 c 0,0 -43.82029,42.5143578 -91.21258,59.6547508 C -33.172233,195.98369 114.83982,443.3569 119.6685,444.17214 c 0,0 19.67981,-34.27113 46.26409,-53.81861 168.69354,-124.01454 202.98012,-266.76132 202.98012,-266.76132 0,0 -37.85472,171.77002 -187.9329,278.64996 -33.14678,23.59376 -55.59109,81.6866 -65.09196,139.74951 0,0 23.4962,-9.49314 33.59981,-12.06445 3.94002,-25.71107 12.17746,-50.33064 26.10421,-72.32386 C 385.34411,482.57648 454.04188,313.56128 463.01632,254.62711 484.19816,115.43688 408.99389,9.3876352 408.99389,9.3876352 Z"
   id="path1"
   style="fill:url(#linearGradient9);fill-opacity:1;stroke:#000000;stroke-width:9.86348;stroke-dasharray:none;stroke-opacity:1" />&#10;</g></g><use
   x="0"
   y="0"
   xlink:href="#g10"
   id="use10"
   transform="matrix(0.5,0,0,0.5,88.222561,-1e-6)" /><g
   id="use12"
   transform="matrix(0.25,0,0,0.25,132.41002,0.0562938)"><path
     id="path12"
     style="fill:url(#linearGradient14);stroke:#000000;stroke-width:0.998633;stroke-dasharray:none;stroke-opacity:1"
     d="M 44.112421,1.5549675 28.186315,17.481077 H 38.838396 V 38.785239 H 17.534234 V 28.133158 L 1.556113,44.111279 17.534234,60.0894 V 49.437319 H 38.838396 V 70.741481 H 28.186315 L 44.112421,86.66759 60.142557,70.741481 H 49.490476 V 49.437319 H 70.794638 V 60.0894 l 15.8741,-15.978121 -15.8741,-15.978121 V 38.785239 H 49.490476 V 17.481077 h 10.652081 z" /><g
     id="g13"
     transform="matrix(0.1120311,0.02014008,-0.01920855,0.10684939,18.514577,9.1187049)"
     style="fill:url(#linearGradient16);fill-opacity:1;stroke:#000000;stroke-width:10.2114;stroke-dasharray:none;stroke-opacity:1">&#10;	<path
   d="m 408.99389,9.3876352 c 0,0 -43.82029,42.5143578 -91.21258,59.6547508 C -33.172233,195.98369 114.83982,443.3569 119.6685,444.17214 c 0,0 19.67981,-34.27113 46.26409,-53.81861 168.69354,-124.01454 202.98012,-266.76132 202.98012,-266.76132 0,0 -37.85472,171.77002 -187.9329,278.64996 -33.14678,23.59376 -55.59109,81.6866 -65.09196,139.74951 0,0 23.4962,-9.49314 33.59981,-12.06445 3.94002,-25.71107 12.17746,-50.33064 26.10421,-72.32386 C 385.34411,482.57648 454.04188,313.56128 463.01632,254.62711 484.19816,115.43688 408.99389,9.3876352 408.99389,9.3876352 Z"
   id="path13"
   style="fill:url(#linearGradient15);fill-opacity:1;stroke:#000000;stroke-width:9.86348;stroke-dasharray:none;stroke-opacity:1" />&#10;</g></g></svg>
