<?xml version="1.0" encoding="UTF-8" standalone="no"?>
<!-- Uploaded to: SVG Repo, www.svgrepo.com, Generator: SVG Repo Mixer Tools -->

<svg
   fill="#000000"
   version="1.1"
   id="Capa_1"
   width="224"
   height="384"
   viewBox="0 0 154.38948 264.66768"
   xml:space="preserve"
   sodipodi:docname="smart-router-icon.svg"
   inkscape:version="1.3 (0e150ed, 2023-07-21)"
   inkscape:export-filename="smart-router-ring.png"
   inkscape:export-xdpi="96"
   inkscape:export-ydpi="96"
   xmlns:inkscape="http://www.inkscape.org/namespaces/inkscape"
   xmlns:sodipodi="http://sodipodi.sourceforge.net/DTD/sodipodi-0.dtd"
   xmlns:xlink="http://www.w3.org/1999/xlink"
   xmlns="http://www.w3.org/2000/svg"
   xmlns:svg="http://www.w3.org/2000/svg"><defs
   id="defs1"><linearGradient
     id="linearGradient11"
     inkscape:collect="always"><stop
       style="stop-color:#969696;stop-opacity:0.47908744;"
       offset="0"
       id="stop10" /><stop
       style="stop-color:#2a2a2a;stop-opacity:0.56653994;"
       offset="1"
       id="stop11" /></linearGradient><linearGradient
     id="linearGradient4"
     inkscape:collect="always"><stop
       style="stop-color:#898989;stop-opacity:1;"
       offset="0"
       id="stop4" /><stop
       style="stop-color:#171717;stop-opacity:1;"
       offset="1"
       id="stop5" /></linearGradient><linearGradient
     id="linearGradient3"
     inkscape:collect="always"><stop
       style="stop-color:#606060;stop-opacity:1;"
       offset="0"
       id="stop2" /><stop
       style="stop-color:#f7f7f7;stop-opacity:1;"
       offset="1"
       id="stop3" /></linearGradient><linearGradient
     id="linearGradient7"
     inkscape:collect="always"><stop
       style="stop-color:#00488f;stop-opacity:1;"
       offset="0"
       id="stop7" /><stop
       style="stop-color:#4fa4ff;stop-opacity:1;"
       offset="1"
       id="stop8" /></linearGradient><linearGradient
     inkscape:collect="always"
     xlink:href="#linearGradient7"
     id="linearGradient8"
     x1="68.969574"
     y1="79.475365"
     x2="24.665854"
     y2="1.8908941"
     gradientUnits="userSpaceOnUse"
     gradientTransform="matrix(0.66445609,0,0,0.66445609,14.801271,10.665838)" /><linearGradient
     inkscape:collect="always"
     xlink:href="#linearGradient3"
     id="linearGradient2"
     gradientUnits="userSpaceOnUse"
     gradientTransform="matrix(0.66445609,0,0,0.66445609,14.801271,98.888399)"
     x1="68.969574"
     y1="79.475365"
     x2="24.665854"
     y2="1.8908941" /><linearGradient
     inkscape:collect="always"
     xlink:href="#linearGradient2-7"
     id="linearGradient3-3"
     x1="1.6657282"
     y1="3.5684118"
     x2="2.4117837"
     y2="0.17126498"
     gradientUnits="userSpaceOnUse"
     gradientTransform="matrix(21.636318,0,0,22.053962,1.0153231,1.169117)" /><linearGradient
     id="linearGradient2-7"
     inkscape:collect="always"><stop
       style="stop-color:#323232;stop-opacity:1;"
       offset="0"
       id="stop2-9" /><stop
       style="stop-color:#6d6d6d;stop-opacity:1;"
       offset="1"
       id="stop3-0" /></linearGradient><linearGradient
     inkscape:collect="always"
     xlink:href="#linearGradient4"
     id="linearGradient5"
     x1="5.5139098"
     y1="5.5139098"
     x2="82.708649"
     y2="88.222557"
     gradientUnits="userSpaceOnUse"
     gradientTransform="translate(0,1.3784775)" /><linearGradient
     inkscape:collect="always"
     xlink:href="#linearGradient11"
     id="linearGradient10"
     gradientUnits="userSpaceOnUse"
     x1="5.5139098"
     y1="5.5139098"
     x2="82.708649"
     y2="88.222557"
     gradientTransform="translate(0,89.601038)" /><linearGradient
     inkscape:collect="always"
     xlink:href="#linearGradient11"
     id="linearGradient15"
     gradientUnits="userSpaceOnUse"
     gradientTransform="translate(0,89.601038)"
     x1="5.5139098"
     y1="5.5139098"
     x2="82.708649"
     y2="88.222557" /><linearGradient
     inkscape:collect="always"
     xlink:href="#linearGradient3"
     id="linearGradient16"
     gradientUnits="userSpaceOnUse"
     gradientTransform="matrix(0.66445609,0,0,0.66445609,14.801271,98.888399)"
     x1="68.969574"
     y1="79.475365"
     x2="24.665854"
     y2="1.8908941" /><linearGradient
     inkscape:collect="always"
     xlink:href="#linearGradient4"
     id="linearGradient17"
     gradientUnits="userSpaceOnUse"
     gradientTransform="translate(0,1.3784775)"
     x1="5.5139098"
     y1="5.5139098"
     x2="82.708649"
     y2="88.222557" /><linearGradient
     inkscape:collect="always"
     xlink:href="#linearGradient2-7"
     id="linearGradient18"
     gradientUnits="userSpaceOnUse"
     gradientTransform="matrix(21.636318,0,0,22.053962,1.0153231,1.169117)"
     x1="1.6657282"
     y1="3.5684118"
     x2="2.4117837"
     y2="0.17126498" /><linearGradient
     inkscape:collect="always"
     xlink:href="#linearGradient7"
     id="linearGradient19"
     gradientUnits="userSpaceOnUse"
     gradientTransform="matrix(0.66445609,0,0,0.66445609,14.801271,10.665838)"
     x1="68.969574"
     y1="79.475365"
     x2="24.665854"
     y2="1.8908941" /><linearGradient
     inkscape:collect="always"
     xlink:href="#linearGradient4"
     id="linearGradient20"
     gradientUnits="userSpaceOnUse"
     gradientTransform="translate(0,1.3784775)"
     x1="5.5139098"
     y1="5.5139098"
     x2="82.708649"
     y2="88.222557" /><linearGradient
     inkscape:collect="always"
     xlink:href="#linearGradient2-7"
     id="linearGradient21"
     gradientUnits="userSpaceOnUse"
     gradientTransform="matrix(21.636318,0,0,22.053962,1.0153231,1.169117)"
     x1="1.6657282"
     y1="3.5684118"
     x2="2.4117837"
     y2="0.17126498" /><linearGradient
     inkscape:collect="always"
     xlink:href="#linearGradient7"
     id="linearGradient22"
     gradientUnits="userSpaceOnUse"
     gradientTransform="matrix(0.66445609,0,0,0.66445609,14.801271,10.665838)"
     x1="68.969574"
     y1="79.475365"
     x2="24.665854"
     y2="1.8908941" /><linearGradient
     inkscape:collect="always"
     xlink:href="#linearGradient11"
     id="linearGradient23"
     gradientUnits="userSpaceOnUse"
     gradientTransform="translate(0,89.601038)"
     x1="5.5139098"
     y1="5.5139098"
     x2="82.708649"
     y2="88.222557" /><linearGradient
     inkscape:collect="always"
     xlink:href="#linearGradient3"
     id="linearGradient24"
     gradientUnits="userSpaceOnUse"
     gradientTransform="matrix(0.66445609,0,0,0.66445609,14.801271,98.888399)"
     x1="68.969574"
     y1="79.475365"
     x2="24.665854"
     y2="1.8908941" /></defs><sodipodi:namedview
   id="namedview1"
   pagecolor="#505050"
   bordercolor="#ffffff"
   borderopacity="1"
   inkscape:showpageshadow="0"
   inkscape:pageopacity="0"
   inkscape:pagecheckerboard="1"
   inkscape:deskcolor="#505050"
   showgrid="true"
   inkscape:zoom="2.19"
   inkscape:cx="161.87215"
   inkscape:cy="280.3653"
   inkscape:window-width="1320"
   inkscape:window-height="879"
   inkscape:window-x="0"
   inkscape:window-y="38"
   inkscape:window-maximized="0"
   inkscape:current-layer="Capa_1"><inkscape:grid
     id="grid1"
     units="px"
     originx="0"
     originy="0"
     spacingx="5.51391"
     spacingy="5.51391"
     empcolor="#0099e5"
     empopacity="0.30196078"
     color="#0099e5"
     opacity="0.14901961"
     empspacing="4"
     dotted="false"
     gridanglex="30"
     gridanglez="30"
     visible="true" /></sodipodi:namedview>&#10;&#10;<path
   id="rect1-4"
   style="fill:url(#linearGradient5);fill-opacity:1;stroke:#282828;stroke-width:0.676188;stroke-opacity:1"
   d="m 17.365913,1.650572 c -8.6620939,0 -15.6355289,6.973434 -15.6355289,15.635529 v 54.521624 c 0,8.6621 6.973435,15.63553 15.6355289,15.63553 h 5.607606 a 10.559093,5.8887251 0 0 1 10.52846,-5.61817 10.559093,5.8887251 0 0 1 10.546948,5.61817 h 0.246957 a 10.559093,5.8887251 0 0 1 10.52715,-5.61817 10.559093,5.8887251 0 0 1 10.54695,5.61817 h 6.110786 c 8.662093,0 15.635528,-6.97343 15.635528,-15.63553 V 17.286101 c 0,-8.662095 -6.973435,-15.635529 -15.635528,-15.635529 z" /><rect
   style="fill:url(#linearGradient3-3);stroke:#6a1fb7;stroke-width:0.682629;stroke-opacity:1"
   id="rect1-3"
   width="81.927994"
   height="75.024025"
   x="3.1472797"
   y="3.54919"
   ry="15.93614" /><path
   id="rect1"
   style="fill:url(#linearGradient8);stroke:#000000;stroke-width:0.686954;stroke-dasharray:none;stroke-opacity:1"
   d="M 44.112064,10.701616 33.156592,21.657091 h 7.327502 V 36.312096 H 25.82909 V 28.984593 L 14.837837,39.975847 25.82909,50.9671 V 43.639597 H 40.484094 V 58.294602 H 33.156592 L 44.112064,69.250077 55.139098,58.294602 H 47.811596 V 43.639597 H 62.4666 V 50.9671 L 73.386298,39.975847 62.4666,28.984593 v 7.327503 H 47.811596 V 21.657091 h 7.327502 z" /><g
   id="g14"><path
     id="path5"
     style="fill:url(#linearGradient10);fill-opacity:1;stroke:#282828;stroke-width:0.676188;stroke-opacity:1"
     d="m 17.365586,89.872963 c -8.6620855,0 -15.6357583,6.973677 -15.6357583,15.635757 v 54.52121 c 0,8.66209 6.9736728,15.63576 15.6357583,15.63576 h 5.608142 a 10.559093,5.8887251 0 0 1 10.528391,-5.61756 10.559093,5.8887251 0 0 1 10.547237,5.61756 h 0.246349 a 10.559093,5.8887251 0 0 1 10.527045,-5.61756 10.559093,5.8887251 0 0 1 10.547238,5.61756 h 6.110263 c 8.662084,0 15.635758,-6.97367 15.635758,-15.63576 v -54.52121 c 0,-8.66208 -6.973674,-15.635757 -15.635758,-15.635757 z m 1.717712,1.899445 h 50.055964 c 8.828613,0 15.935954,7.107342 15.935954,15.935962 v 43.15146 c 0,8.82861 -7.107341,15.93595 -15.935954,15.93595 H 19.083298 c -8.828613,0 -15.9359539,-7.10734 -15.9359539,-15.93595 v -43.15146 c 0,-8.82862 7.1073409,-15.935962 15.9359539,-15.935962 z" /><rect
     style="fill:none;stroke:#ffffff;stroke-width:0.682346;stroke-dasharray:none;stroke-opacity:1"
     id="rect5"
     width="81.927994"
     height="75.024025"
     x="3.1472797"
     y="91.771751"
     ry="15.93614" /><path
     id="path2"
     style="fill:url(#linearGradient2);stroke:#000000;stroke-width:0.686954;stroke-dasharray:none;stroke-opacity:1"
     d="M 44.112064,98.924179 33.156592,109.87965 h 7.327502 v 14.655 H 25.82909 v -7.3275 L 14.837837,128.1984 25.82909,139.18966 v -7.3275 h 14.655004 v 14.655 h -7.327502 l 10.955472,10.95547 11.027034,-10.95547 h -7.327502 v -14.655 H 62.4666 v 7.3275 L 73.386298,128.1984 62.4666,117.20715 v 7.3275 H 47.811596 v -14.655 h 7.327502 z" /></g><g
   id="g15"
   transform="matrix(0.5,0,0,0.5,88.378379,44.329023)"><path
     id="path14"
     style="fill:url(#linearGradient15);fill-opacity:1;stroke:#282828;stroke-width:0.676188;stroke-opacity:1"
     d="m 17.365586,89.872963 c -8.6620855,0 -15.6357583,6.973677 -15.6357583,15.635757 v 54.52121 c 0,8.66209 6.9736728,15.63576 15.6357583,15.63576 h 5.608142 a 10.559093,5.8887251 0 0 1 10.528391,-5.61756 10.559093,5.8887251 0 0 1 10.547237,5.61756 h 0.246349 a 10.559093,5.8887251 0 0 1 10.527045,-5.61756 10.559093,5.8887251 0 0 1 10.547238,5.61756 h 6.110263 c 8.662084,0 15.635758,-6.97367 15.635758,-15.63576 v -54.52121 c 0,-8.66208 -6.973674,-15.635757 -15.635758,-15.635757 z m 1.717712,1.899445 h 50.055964 c 8.828613,0 15.935954,7.107342 15.935954,15.935962 v 43.15146 c 0,8.82861 -7.107341,15.93595 -15.935954,15.93595 H 19.083298 c -8.828613,0 -15.9359539,-7.10734 -15.9359539,-15.93595 v -43.15146 c 0,-8.82862 7.1073409,-15.935962 15.9359539,-15.935962 z" /><rect
     style="fill:none;stroke:#ffffff;stroke-width:0.682346;stroke-dasharray:none;stroke-opacity:1"
     id="rect14"
     width="81.927994"
     height="75.024025"
     x="3.1472797"
     y="91.771751"
     ry="15.93614" /><path
     id="path15"
     style="fill:url(#linearGradient16);stroke:#000000;stroke-width:0.686954;stroke-dasharray:none;stroke-opacity:1"
     d="M 44.112064,98.924179 33.156592,109.87965 h 7.327502 v 14.655 H 25.82909 v -7.3275 L 14.837837,128.1984 25.82909,139.18966 v -7.3275 h 14.655004 v 14.655 h -7.327502 l 10.955472,10.95547 11.027034,-10.95547 h -7.327502 v -14.655 H 62.4666 v 7.3275 L 73.386298,128.1984 62.4666,117.20715 v 7.3275 H 47.811596 v -14.655 h 7.327502 z" /></g><g
   id="g17"
   transform="matrix(0.5,0,0,0.5,88.378591,0.21781675)"><path
     id="path16"
     style="fill:url(#linearGradient17);fill-opacity:1;stroke:#282828;stroke-width:0.676188;stroke-opacity:1"
     d="m 17.365913,1.650572 c -8.6620939,0 -15.6355289,6.973434 -15.6355289,15.635529 v 54.521624 c 0,8.6621 6.973435,15.63553 15.6355289,15.63553 h 5.607606 a 10.559093,5.8887251 0 0 1 10.52846,-5.61817 10.559093,5.8887251 0 0 1 10.546948,5.61817 h 0.246957 a 10.559093,5.8887251 0 0 1 10.52715,-5.61817 10.559093,5.8887251 0 0 1 10.54695,5.61817 h 6.110786 c 8.662093,0 15.635528,-6.97343 15.635528,-15.63553 V 17.286101 c 0,-8.662095 -6.973435,-15.635529 -15.635528,-15.635529 z" /><rect
     style="fill:url(#linearGradient18);stroke:#6a1fb7;stroke-width:0.682629;stroke-opacity:1"
     id="rect16"
     width="81.927994"
     height="75.024025"
     x="3.1472797"
     y="3.54919"
     ry="15.93614" /><path
     id="path17"
     style="fill:url(#linearGradient19);stroke:#000000;stroke-width:0.686954;stroke-dasharray:none;stroke-opacity:1"
     d="M 44.112064,10.701616 33.156592,21.657091 h 7.327502 V 36.312096 H 25.82909 V 28.984593 L 14.837837,39.975847 25.82909,50.9671 V 43.639597 H 40.484094 V 58.294602 H 33.156592 L 44.112064,69.250077 55.139098,58.294602 H 47.811596 V 43.639597 H 62.4666 V 50.9671 L 73.386298,39.975847 62.4666,28.984593 v 7.327503 H 47.811596 V 21.657091 h 7.327502 z" /></g><g
   id="g20"
   transform="matrix(0.25,0,0,0.25,132.56789,0.326725)"><path
     id="path19"
     style="fill:url(#linearGradient20);fill-opacity:1;stroke:#282828;stroke-width:0.676188;stroke-opacity:1"
     d="m 17.365913,1.650572 c -8.6620939,0 -15.6355289,6.973434 -15.6355289,15.635529 v 54.521624 c 0,8.6621 6.973435,15.63553 15.6355289,15.63553 h 5.607606 a 10.559093,5.8887251 0 0 1 10.52846,-5.61817 10.559093,5.8887251 0 0 1 10.546948,5.61817 h 0.246957 a 10.559093,5.8887251 0 0 1 10.52715,-5.61817 10.559093,5.8887251 0 0 1 10.54695,5.61817 h 6.110786 c 8.662093,0 15.635528,-6.97343 15.635528,-15.63553 V 17.286101 c 0,-8.662095 -6.973435,-15.635529 -15.635528,-15.635529 z" /><rect
     style="fill:url(#linearGradient21);stroke:#6a1fb7;stroke-width:0.682629;stroke-opacity:1"
     id="rect19"
     width="81.927994"
     height="75.024025"
     x="3.1472797"
     y="3.54919"
     ry="15.93614" /><path
     id="path20"
     style="fill:url(#linearGradient22);stroke:#000000;stroke-width:0.686954;stroke-dasharray:none;stroke-opacity:1"
     d="M 44.112064,10.701616 33.156592,21.657091 h 7.327502 V 36.312096 H 25.82909 V 28.984593 L 14.837837,39.975847 25.82909,50.9671 V 43.639597 H 40.484094 V 58.294602 H 33.156592 L 44.112064,69.250077 55.139098,58.294602 H 47.811596 V 43.639597 H 62.4666 V 50.9671 L 73.386298,39.975847 62.4666,28.984593 v 7.327503 H 47.811596 V 21.657091 h 7.327502 z" /></g><g
   id="g23"
   transform="matrix(0.25,0,0,0.25,132.56757,66.493535)"><path
     id="path22"
     style="fill:url(#linearGradient23);fill-opacity:1;stroke:#282828;stroke-width:0.676188;stroke-opacity:1"
     d="m 17.365586,89.872963 c -8.6620855,0 -15.6357583,6.973677 -15.6357583,15.635757 v 54.52121 c 0,8.66209 6.9736728,15.63576 15.6357583,15.63576 h 5.608142 a 10.559093,5.8887251 0 0 1 10.528391,-5.61756 10.559093,5.8887251 0 0 1 10.547237,5.61756 h 0.246349 a 10.559093,5.8887251 0 0 1 10.527045,-5.61756 10.559093,5.8887251 0 0 1 10.547238,5.61756 h 6.110263 c 8.662084,0 15.635758,-6.97367 15.635758,-15.63576 v -54.52121 c 0,-8.66208 -6.973674,-15.635757 -15.635758,-15.635757 z m 1.717712,1.899445 h 50.055964 c 8.828613,0 15.935954,7.107342 15.935954,15.935962 v 43.15146 c 0,8.82861 -7.107341,15.93595 -15.935954,15.93595 H 19.083298 c -8.828613,0 -15.9359539,-7.10734 -15.9359539,-15.93595 v -43.15146 c 0,-8.82862 7.1073409,-15.935962 15.9359539,-15.935962 z" /><rect
     style="fill:none;stroke:#ffffff;stroke-width:0.682346;stroke-dasharray:none;stroke-opacity:1"
     id="rect22"
     width="81.927994"
     height="75.024025"
     x="3.1472797"
     y="91.771751"
     ry="15.93614" /><path
     id="path23"
     style="fill:url(#linearGradient24);stroke:#000000;stroke-width:0.686954;stroke-dasharray:none;stroke-opacity:1"
     d="M 44.112064,98.924179 33.156592,109.87965 h 7.327502 v 14.655 H 25.82909 v -7.3275 L 14.837837,128.1984 25.82909,139.18966 v -7.3275 h 14.655004 v 14.655 h -7.327502 l 10.955472,10.95547 11.027034,-10.95547 h -7.327502 v -14.655 H 62.4666 v 7.3275 L 73.386298,128.1984 62.4666,117.20715 v 7.3275 H 47.811596 v -14.655 h 7.327502 z" /></g><circle
   style="fill:none;fill-opacity:1;stroke:#ffffff;stroke-width:0.682346;stroke-linecap:round;stroke-dasharray:none;stroke-opacity:1"
   id="path34"
   cx="44.111279"
   cy="216.42096"
   r="30.319138" /><circle
   style="fill:none;fill-opacity:1;stroke:#ffffff;stroke-width:0.750581;stroke-linecap:round;stroke-dasharray:none;stroke-opacity:1"
   id="circle34"
   cx="44.111279"
   cy="216.42096"
   r="33.351051" /><circle
   style="fill:none;fill-opacity:1;stroke:#ffffff;stroke-width:0.341173;stroke-linecap:round;stroke-dasharray:none;stroke-opacity:1"
   id="circle44"
   cx="110.41605"
   cy="196.66135"
   r="15.159569" /><circle
   style="fill:none;fill-opacity:1;stroke:#ffffff;stroke-width:0.375291;stroke-linecap:round;stroke-dasharray:none;stroke-opacity:1"
   id="circle45"
   cx="110.41605"
   cy="196.66135"
   r="16.675526" /><circle
   style="fill:none;fill-opacity:1;stroke:#ffffff;stroke-width:0.170586;stroke-linecap:round;stroke-dasharray:none;stroke-opacity:1"
   id="circle46"
   cx="143.49951"
   cy="186.73631"
   r="7.5797844" /><circle
   style="fill:none;fill-opacity:1;stroke:#ffffff;stroke-width:0.187645;stroke-linecap:round;stroke-dasharray:none;stroke-opacity:1"
   id="circle47"
   cx="143.49951"
   cy="186.73631"
   r="8.3377628" /></svg>
