<?xml version="1.0" encoding="UTF-8" standalone="no"?>
<!-- Created with Inkscape (http://www.inkscape.org/) -->

<svg
   width="128"
   height="256"
   viewBox="0 0 4 8"
   version="1.1"
   id="svg1"
   inkscape:version="1.3 (0e150ed, 2023-07-21)"
   sodipodi:docname="wow-smart.svg"
   inkscape:export-filename="wow-smart.png"
   inkscape:export-xdpi="192"
   inkscape:export-ydpi="192"
   xmlns:inkscape="http://www.inkscape.org/namespaces/inkscape"
   xmlns:sodipodi="http://sodipodi.sourceforge.net/DTD/sodipodi-0.dtd"
   xmlns:xlink="http://www.w3.org/1999/xlink"
   xmlns="http://www.w3.org/2000/svg"
   xmlns:svg="http://www.w3.org/2000/svg">
  <sodipodi:namedview
     id="namedview1"
     pagecolor="#505050"
     bordercolor="#ffffff"
     borderopacity="1"
     inkscape:showpageshadow="0"
     inkscape:pageopacity="0"
     inkscape:pagecheckerboard="1"
     inkscape:deskcolor="#505050"
     inkscape:document-units="px"
     showgrid="true"
     inkscape:zoom="2.04"
     inkscape:cx="68.872549"
     inkscape:cy="144.36275"
     inkscape:window-width="1472"
     inkscape:window-height="906"
     inkscape:window-x="40"
     inkscape:window-y="38"
     inkscape:window-maximized="0"
     inkscape:current-layer="layer1">
    <inkscape:grid
       id="grid1"
       units="px"
       originx="0"
       originy="0"
       spacingx="0.25"
       spacingy="0.25"
       empcolor="#0099e5"
       empopacity="0.30196078"
       color="#0099e5"
       opacity="0.14901961"
       empspacing="4"
       dotted="false"
       gridanglex="30"
       gridanglez="30"
       visible="true" />
  </sodipodi:namedview>
  <defs
     id="defs1">
    <linearGradient
       id="linearGradient2"
       inkscape:collect="always">
      <stop
         style="stop-color:#313d27;stop-opacity:1;"
         offset="0"
         id="stop2" />
      <stop
         style="stop-color:#5b6e7f;stop-opacity:1;"
         offset="1"
         id="stop3" />
    </linearGradient>
    <linearGradient
       inkscape:collect="always"
       xlink:href="#linearGradient2"
       id="linearGradient3"
       x1="1.6657282"
       y1="3.5684118"
       x2="2.4117837"
       y2="0.17126498"
       gradientUnits="userSpaceOnUse"
       gradientTransform="matrix(0.98098797,0,0,0.99992392,0.03814188,0.03603315)" />
    <linearGradient
       id="linearGradient3-3"
       inkscape:collect="always">
      <stop
         style="stop-color:#606060;stop-opacity:1;"
         offset="0"
         id="stop2-6" />
      <stop
         style="stop-color:#f7f7f7;stop-opacity:1;"
         offset="1"
         id="stop3-5" />
    </linearGradient>
    <linearGradient
       inkscape:collect="always"
       xlink:href="#linearGradient3-3"
       id="linearGradient5"
       gradientUnits="userSpaceOnUse"
       gradientTransform="matrix(0.02266994,0,0,0.02266994,1.0000001,5.0000002)"
       x1="68.969574"
       y1="79.475365"
       x2="24.665854"
       y2="1.8908941" />
  </defs>
  <g
     inkscape:label="Layer 1"
     inkscape:groupmode="layer"
     id="layer1">
    <path
       id="path2"
       style="fill:none;stroke:#fefffe;stroke-width:0.0625;stroke-opacity:1;stroke-dasharray:none"
       d="m 0.85736084,4.1439209 c -0.40028702,0 -0.72253418,0.3223082 -0.72253418,0.7225952 V 6.822998 c 0,0.4002871 0.32224716,0.7225342 0.72253418,0.7225342 H 1.7546997 A 0.25,0.25 0 0 1 1.75,7.5 0.25,0.25 0 0 1 2,7.25 0.25,0.25 0 0 1 2.25,7.5 0.25,0.25 0 0 1 2.2453,7.545532 h 0.8815918 c 0.400287,0 0.7225342,-0.3222471 0.7225342,-0.7225342 V 4.8665161 c 0,-0.400287 -0.3222472,-0.7225952 -0.7225342,-0.7225952 z M 2,4.25 A 0.25,0.25 0 0 1 2.25,4.5 0.25,0.25 0 0 1 2,4.75 0.25,0.25 0 0 1 1.75,4.5 0.25,0.25 0 0 1 2,4.25 Z M 0.5,5.75 A 0.25,0.25 0 0 1 0.75,6 0.25,0.25 0 0 1 0.5,6.25 0.25,0.25 0 0 1 0.25,6 0.25,0.25 0 0 1 0.5,5.75 Z m 3,0 A 0.25,0.25 0 0 1 3.75,6 0.25,0.25 0 0 1 3.5,6.25 0.25,0.25 0 0 1 3.25,6 0.25,0.25 0 0 1 3.5,5.75 Z" />
    <path
       id="rect1-4"
       style="fill:#372237;fill-opacity:1;stroke:none;stroke-width:0.0306583;stroke-opacity:1"
       d="m 0.77947998,0.05786133 c -0.39273672,0 -0.70892334,0.31618662 -0.70892334,0.70892334 V 3.2387695 c 0,0.3927366 0.31618662,0.7089234 0.70892334,0.7089234 H 1.0337524 a 0.47874797,0.26699407 0 0 1 0.477356,-0.2546997 0.47874797,0.26699407 0 0 1 0.4781494,0.2546997 h 0.011231 A 0.47874797,0.26699407 0 0 1 2.4777832,3.6929932 0.47874797,0.26699407 0 0 1 2.9559937,3.9476929 h 0.2770385 c 0.3927366,0 0.7089234,-0.3161868 0.7089234,-0.7089234 V 0.76678467 c 0,-0.39273672 -0.3161868,-0.70892334 -0.7089234,-0.70892334 z M 2,0.25 A 0.25000003,0.25000003 0 0 1 2.25,0.5 0.25000003,0.25000003 0 0 1 2,0.75 0.25000003,0.25000003 0 0 1 1.75,0.5 0.25000003,0.25000003 0 0 1 2,0.25 Z M 0.5,1.75 A 0.25000003,0.25000003 0 0 1 0.75,2 0.25000003,0.25000003 0 0 1 0.5,2.25 0.25000003,0.25000003 0 0 1 0.25,2 0.25000003,0.25000003 0 0 1 0.5,1.75 Z m 3,0 A 0.25000003,0.25000003 0 0 1 3.75,2 0.25000003,0.25000003 0 0 1 3.5,2.25 0.25000003,0.25000003 0 0 1 3.25,2 0.25000003,0.25000003 0 0 1 3.5,1.75 Z M 2,3.25 A 0.25,0.25 0 0 1 2.25,3.5 0.25,0.25 0 0 1 2,3.75 0.25,0.25 0 0 1 1.75,3.5 0.25,0.25 0 0 1 2,3.25 Z" />
    <path
       id="rect1"
       style="fill:url(#linearGradient3);stroke:#fefffe;stroke-width:0.0309503;stroke-opacity:1"
       d="m 0.85736084,0.1439209 c -0.40028702,0 -0.72253418,0.32230819 -0.72253418,0.72259521 V 2.822998 c 0,0.4002871 0.32224716,0.7225342 0.72253418,0.7225342 H 1.7546997 A 0.25,0.25 0 0 1 1.75,3.5 0.25,0.25 0 0 1 2,3.25 0.25,0.25 0 0 1 2.25,3.5 0.25,0.25 0 0 1 2.2453,3.545532 h 0.8815918 c 0.400287,0 0.7225342,-0.3222471 0.7225342,-0.7225342 V 0.86651611 C 3.849426,0.46622909 3.5271788,0.1439209 3.1268918,0.1439209 Z M 2,0.25 A 0.25,0.25 0 0 1 2.25,0.5 0.25,0.25 0 0 1 2,0.75 0.25,0.25 0 0 1 1.75,0.5 0.25,0.25 0 0 1 2,0.25 Z M 0.5,1.75 A 0.25,0.25 0 0 1 0.75,2 0.25,0.25 0 0 1 0.5,2.25 0.25,0.25 0 0 1 0.25,2 0.25,0.25 0 0 1 0.5,1.75 Z m 3,0 A 0.25,0.25 0 0 1 3.75,2 0.25,0.25 0 0 1 3.5,2.25 0.25,0.25 0 0 1 3.25,2 0.25,0.25 0 0 1 3.5,1.75 Z" />
    <text
       xml:space="preserve"
       style="font-size:0.375px;fill:#59d900;stroke-width:0.0625"
       x="3.1307871"
       y="2.5"
       id="text1"><tspan
         sodipodi:role="line"
         id="tspan1"
         style="stroke-width:0.0625"
         x="3.1307871"
         y="2.5" /></text>
    <path
       id="path5"
       style="fill:url(#linearGradient5);stroke:none;stroke-width:0.0234375;stroke-dasharray:none;stroke-opacity:1"
       d="M 2.0000268,5.0012209 1.6262476,5.3750001 h 0.25 V 5.875 H 1.3762477 v -0.25 l -0.375,0.3749999 0.375,0.3750002 V 6.1250002 h 0.4999999 v 0.4999999 h -0.25 l 0.3737792,0.373779 0.3762207,-0.373779 H 2.1262476 V 6.1250002 H 2.6262475 V 6.3750001 L 2.9988062,5.9999999 2.6262475,5.625 v 0.25 H 2.1262476 V 5.3750001 h 0.2499999 z" />
  </g>
</svg>
